<?xml version="1.0" standalone="no"?>
<!DOCTYPE svg PUBLIC "-//W3C//DTD SVG 20010904//EN"
 "http://www.w3.org/TR/2001/REC-SVG-20010904/DTD/svg10.dtd">
<svg version="1.0" xmlns="http://www.w3.org/2000/svg"
 width="810.000000pt" height="810.000000pt" viewBox="0 0 810.000000 810.000000"
 preserveAspectRatio="xMidYMid meet">
<metadata>
Created by potrace 1.11, written by Peter Selinger 2001-2013
</metadata>
<g transform="translate(0.000000,810.000000) scale(0.100000,-0.100000)"
fill="#000000" stroke="none">
<path d="M4026 6953 c-1 -1 -24 -5 -51 -8 -27 -4 -52 -8 -57 -11 -4 -3 -28 -7
-54 -10 -26 -2 -50 -7 -55 -9 -4 -3 -34 -8 -66 -10 -32 -3 -74 -8 -93 -12 -45
-8 -57 -9 -104 -14 -34 -3 -50 -16 -145 -114 -244 -253 -329 -332 -420 -394
-107 -71 -210 -125 -259 -136 -46 -10 -32 -21 35 -29 32 -3 123 -15 203 -25
742 -99 738 -99 771 -72 11 9 97 180 191 381 220 471 207 439 183 456 -16 12
-69 16 -79 7z"/>
<path d="M601 6681 c-7 -5 -4 -14 10 -29 11 -12 25 -19 31 -16 7 4 8 2 4 -4
-3 -6 2 -16 13 -21 11 -6 25 -17 33 -24 7 -7 31 -26 53 -42 22 -17 42 -32 45
-35 3 -4 39 -33 80 -65 41 -33 77 -62 80 -65 3 -3 46 -37 95 -75 267 -207 667
-598 812 -797 102 -138 197 -302 191 -330 -1 -7 4 -37 11 -65 16 -66 7 -138
-25 -198 l-23 -45 27 0 c15 0 42 10 61 23 19 12 43 27 53 33 10 6 15 13 12 16
-3 3 1 6 8 5 33 -1 49 4 43 14 -4 6 -1 9 6 8 22 -5 69 10 69 22 0 6 4 8 9 4 5
-3 12 -1 16 4 3 6 12 8 20 4 8 -3 15 -1 15 4 0 5 10 9 22 10 11 1 25 8 29 15
5 7 9 10 9 6 0 -4 57 13 128 38 70 25 138 46 152 48 14 2 145 42 291 89 334
108 423 133 895 251 528 132 826 196 1204 256 150 23 180 33 180 55 0 20 79
16 -625 30 -203 4 -399 9 -435 11 -131 8 -196 13 -245 19 -27 3 -156 14 -285
26 -208 18 -606 68 -910 114 -356 55 -1209 277 -1415 369 -16 8 -41 17 -54 21
-13 4 -60 24 -105 45 -45 21 -103 48 -131 60 -27 12 -138 66 -246 120 -108 54
-202 95 -208 91z"/>
<path d="M4160 5354 c-19 -2 -80 -9 -135 -15 -463 -49 -953 -203 -1459 -456
-502 -251 -930 -527 -1260 -811 -236 -204 -562 -541 -824 -852 -67 -80 -131
-154 -142 -166 -11 -12 -20 -24 -20 -28 0 -4 -13 -21 -30 -39 -16 -18 -30 -36
-30 -40 0 -5 -8 -19 -17 -32 -10 -12 -25 -33 -33 -45 -8 -12 -37 -53 -65 -91
-88 -120 -130 -184 -127 -191 1 -5 -2 -8 -7 -8 -5 0 0 -30 10 -68 53 -189 122
-478 120 -507 0 -2 4 -19 9 -36 5 -17 12 -57 15 -88 4 -31 8 -63 10 -71 11
-39 18 -216 19 -432 1 -152 5 -238 11 -238 6 0 41 55 79 123 194 342 486 814
659 1062 478 687 1131 1367 1680 1748 510 356 1319 685 1932 787 185 31 639
31 890 1 166 -20 310 -46 350 -62 11 -4 70 -23 132 -43 363 -114 752 -311 980
-497 145 -119 362 -330 537 -524 44 -49 84 -92 87 -95 3 -3 35 -45 72 -95 37
-49 74 -99 82 -110 8 -11 21 -32 28 -47 6 -15 15 -28 19 -28 5 0 8 -6 8 -13 0
-8 8 -21 18 -30 10 -9 29 -39 42 -66 14 -28 28 -51 33 -51 4 0 7 -5 7 -12 0
-6 6 -19 14 -27 38 -42 116 -205 187 -388 6 -16 17 -23 34 -23 20 0 25 5 25
25 0 13 -6 39 -14 57 -7 18 -21 58 -31 88 -31 100 -171 373 -255 500 -98 148
-275 385 -391 525 -211 254 -577 576 -874 770 -33 21 -61 42 -63 47 -2 4 -8 8
-14 8 -5 0 -30 14 -54 31 -59 40 -167 100 -274 151 -214 102 -254 119 -380
166 -313 117 -634 191 -990 228 -68 7 -552 13 -600 8z"/>
<path d="M3560 2981 c-164 -39 -283 -104 -400 -221 -40 -39 -120 -142 -120
-154 0 -5 -9 -20 -20 -35 -22 -32 -66 -158 -81 -234 -33 -174 5 -390 97 -547
124 -212 346 -362 586 -395 45 -7 196 -6 233 0 237 43 423 164 551 356 157
237 176 548 47 803 -102 205 -275 348 -503 417 -102 30 -283 35 -390 10z m300
-321 c170 -46 309 -199 342 -379 26 -140 -27 -303 -133 -410 -149 -150 -361
-182 -556 -84 -112 56 -219 200 -242 325 -21 117 4 246 67 344 113 174 325
257 522 204z"/>
<path d="M7150 2981 c-46 -10 -110 -43 -137 -73 -12 -12 -31 -43 -42 -68 -20
-44 -21 -62 -21 -726 0 -641 1 -682 18 -686 9 -2 80 -3 157 -3 l140 1 3 624
c1 436 5 626 13 631 6 3 53 5 105 3 76 -2 102 -7 130 -24 55 -34 81 -99 75
-189 -2 -36 -68 -92 -146 -125 -130 -54 -167 -98 -159 -190 4 -47 26 -99 119
-271 18 -33 60 -114 95 -180 74 -142 142 -268 147 -275 2 -2 89 -4 193 -5
l188 0 -27 50 c-15 28 -74 130 -129 228 -56 98 -102 180 -102 183 0 2 -11 22
-25 44 -13 21 -45 75 -69 120 l-45 81 25 9 c13 5 48 27 78 49 161 120 220 278
167 451 -26 82 -67 145 -138 210 -79 72 -138 98 -283 125 -52 10 -290 14 -330
6z"/>
<path d="M2638 2975 c-2 -2 -23 -6 -47 -10 -132 -19 -307 -110 -407 -209 -154
-154 -229 -330 -233 -542 -4 -213 67 -391 214 -539 167 -168 371 -250 628
-254 l107 -2 0 156 c0 117 -3 155 -12 156 -7 0 -47 2 -88 4 -121 4 -169 14
-244 49 -87 41 -142 88 -195 166 -90 135 -100 315 -26 465 39 81 134 174 215
212 82 39 120 46 250 48 l105 1 3 153 3 152 -135 -2 c-74 0 -136 -2 -138 -4z"/>
<path d="M4888 2974 c-2 -1 -20 -5 -40 -8 -20 -3 -52 -13 -70 -22 -42 -20
-100 -92 -114 -141 -15 -55 -19 -1183 -4 -1228 15 -46 90 -110 153 -131 39
-13 86 -17 187 -17 145 0 213 10 330 50 206 71 389 244 464 442 126 329 20
701 -259 903 -92 66 -224 124 -331 144 -37 6 -310 14 -316 8z m297 -313 c63
-17 155 -76 208 -133 202 -222 147 -580 -114 -731 -68 -39 -134 -57 -225 -62
l-84 -5 -1 163 c0 89 -2 302 -4 474 l-3 312 41 3 c49 3 125 -5 182 -21z"/>
<path d="M6137 2965 c-58 -20 -114 -61 -134 -97 -17 -30 -18 -79 -20 -626 -2
-580 -2 -594 18 -649 12 -30 37 -73 57 -94 63 -71 67 -72 408 -73 l304 -2 1
36 c1 43 0 180 0 238 l-1 42 -230 0 c-212 0 -230 1 -231 18 -1 19 -1 272 0
313 l1 25 211 -1 c179 0 212 2 218 15 5 12 6 186 2 271 -1 15 -25 17 -211 17
-116 1 -214 3 -218 6 -5 3 -7 197 -3 262 1 8 65 12 226 11 124 0 228 2 231 5
4 4 7 183 5 270 l-1 27 -297 0 c-223 0 -308 -4 -336 -14z"/>
<path d="M1651 2919 c-34 -28 -82 -77 -105 -109 l-43 -58 0 -663 0 -664 136 1
c75 1 150 2 168 3 l31 1 0 769 0 769 -62 1 c-60 1 -64 -1 -125 -50z"/>
</g>
</svg>
